<svg xmlns="http://www.w3.org/2000/svg" viewBox="0 0 30 18"><defs><style>.cls-1{fill:#9faecb;}</style></defs><title>资源 1</title><g id="图层_2" data-name="图层 2"><g id="图层_1-2" data-name="图层 1"><rect class="cls-1" x="13.26" y="13.34" width="14.64" height="0.87"/><rect class="cls-1" x="13.26" y="4.48" width="14.64" height="0.87"/><path class="cls-1" d="M7.11,10.42A3.32,3.32,0,1,1,10.43,7.1h0A3.32,3.32,0,0,1,7.11,10.42Zm0-5.68A2.37,2.37,0,1,0,9.47,7.12h0A2.37,2.37,0,0,0,7.11,4.74Z"/><path class="cls-1" d="M12.33,14.21H1.88L2,13.8a5.33,5.33,0,0,1,3.41-4,5.23,5.23,0,0,1,6.84,3.88Zm-9.24-.87h8a4.29,4.29,0,0,0-4-2.92A4.29,4.29,0,0,0,3.09,13.34Z"/><path class="cls-1" d="M25.74,18H4.26A4.27,4.27,0,0,1,0,13.74V4.26A4.27,4.27,0,0,1,4.26,0H25.74A4.27,4.27,0,0,1,30,4.26v9.47A4.27,4.27,0,0,1,25.74,18ZM4.26.95A3.32,3.32,0,0,0,.95,4.26v9.47a3.32,3.32,0,0,0,3.32,3.32H25.74a3.32,3.32,0,0,0,3.32-3.32V4.26A3.32,3.32,0,0,0,25.74.95Z"/><rect class="cls-1" x="14.85" y="6.92" width="0.81" height="4.85" transform="translate(-2.14 13.52) rotate(-45)"/><rect class="cls-1" x="12.83" y="8.93" width="4.85" height="0.81" transform="translate(-2.13 13.52) rotate(-45)"/><rect class="cls-1" x="20.17" y="6.92" width="0.81" height="4.85" transform="translate(-0.58 17.29) rotate(-45)"/><rect class="cls-1" x="18.15" y="8.93" width="4.85" height="0.81" transform="translate(-0.58 17.28) rotate(-45)"/><rect class="cls-1" x="25.49" y="6.92" width="0.81" height="4.85" transform="translate(0.98 21.05) rotate(-45)"/><rect class="cls-1" x="23.47" y="8.93" width="4.85" height="0.81" transform="translate(0.98 21.05) rotate(-45)"/></g></g></svg>